# xmcd
# 
# Track frame offsets:
#     150
#     22252
#     45847
#     63812
#     86555
#     105912
#     119865
#     135722
#     155940
#     169140
#     186997
#     207600
#     229180
# 
# Disc length: 3448
# 
# Revision: 11
# Processed by: cddbd v1.5.2PL0 Copyright (c) Steve Scherf et al.
# Submitted via: fre:ac v1.0.27
# 
DISCID=ba0d760d
DTITLE=Poi Dog Pondering - Wishing Like a Mountain and Thinking Like the Sea
DYEAR=1990
DGENRE=Jam Band
TTITLE0=Bury Me Deep
TTITLE1=Watermelon Song
TTITLE2=U-Li-La-Lu
TTITLE3=Everybody's Trying
TTITLE4=Big Beautiful Spoon
TTITLE5=The Ancient Egyptians
TTITLE6=Spending the Day in the Shirt You Wore
TTITLE7=Thanksgiving
TTITLE8=Praise the Lord
TTITLE9=The Me That Was Your Son
TTITLE10=Fruitless
TTITLE11=Big Walk
TTITLE12=Sugarbush Cushman
EXTD=1990
EXTT0=
EXTT1=
EXTT2=
EXTT3=
EXTT4=
EXTT5=
EXTT6=
EXTT7=
EXTT8=
EXTT9=
EXTT10=
EXTT11=
EXTT12=
PLAYORDER=
